<svg width="742" height="265" viewBox="0 0 742 265" fill="none" xmlns="http://www.w3.org/2000/svg">
<path d="M130.509 164.636C111.186 185.54 89.181 203.815 65.063 218.989C53.8639 225.998 40.9154 234.708 27.3245 235.773C19.1745 236.413 16.6845 233.469 15.9893 225.512C15.4149 217.463 15.7176 209.376 16.8924 201.392C20.8143 172.006 32.652 143.05 47.1195 117.307C60.9862 92.6152 79.3 66.0034 103.093 49.8142C106.651 47.319 110.46 45.1985 114.458 43.4868C116.073 42.6927 117.783 42.1083 119.547 41.7479C122.57 41.5258 122.192 41.5521 122.922 44.5747C124.021 51.8717 123.685 59.3123 121.932 66.4814C118.899 83.8596 113.089 100.641 104.721 116.186C101.555 122.152 115.852 134.449 119.733 127.139C129.025 109.73 135.165 90.8247 137.869 71.2918C139.834 57.0186 139.403 41.7479 127.236 31.8974C112.879 20.2815 96.0496 30.9187 83.9059 40.6299C69.7529 52.6651 57.4032 66.6576 47.2328 82.1812C25.4391 113.517 8.18317 150.209 2.1982 188.079C-0.359769 204.264 -2.83084 224.966 8.00558 238.822C17.3873 250.833 32.055 253.265 46.1106 249.162C63.8464 243.982 80.8303 231.595 95.6453 220.931C113.146 208.274 129.341 193.916 143.994 178.07C149.03 172.65 135.454 159.322 130.509 164.636ZM173.794 156.228C173.674 155.15 173.398 154.095 172.974 153.096C177.153 148.364 166.32 136.323 160.645 139.169C142.093 148.417 109.259 180.321 129.073 202.22C139.698 213.968 153.209 208.973 161.945 197.937C171.209 186.114 175.463 171.149 173.798 156.243L173.794 156.228ZM154.006 175.507C151.937 179.921 149.187 183.985 145.856 187.552C143.842 189.41 141.695 191.121 139.433 192.671C139.682 191.256 139.886 189.626 140.057 189.11C140.754 187.093 141.581 185.123 142.531 183.212C144.539 179.032 147.033 175.1 149.96 171.498C152.347 168.553 154.988 165.821 157.853 163.334C157.117 167.543 155.824 171.637 154.006 175.507ZM227.522 156.224C227.403 155.146 227.126 154.091 226.703 153.092C230.881 148.361 220.049 136.319 214.374 139.165C195.822 148.413 162.988 180.317 182.801 202.217C193.426 213.964 206.938 208.969 215.673 197.933C224.938 186.11 229.192 171.146 227.526 156.239L227.522 156.224ZM207.735 175.507C205.665 179.921 202.915 183.985 199.585 187.552C197.571 189.41 195.424 191.121 193.162 192.671C193.411 191.256 193.615 189.626 193.785 189.11C194.483 187.093 195.309 185.123 196.26 183.212C198.268 179.032 200.761 175.1 203.688 171.498C206.075 168.553 208.717 165.821 211.581 163.334C210.846 167.543 209.552 171.637 207.735 175.507ZM313.821 158.802C305.792 167.441 277.375 182.478 256.011 185.527C254.999 174.89 262.93 158.923 265.457 151.379C270.616 136.002 275.965 120.695 281.504 105.458C292.774 74.4423 304.824 43.7252 317.656 13.3067C320.331 6.95304 305.777 -5.08814 302.644 2.35338C290.929 30.2073 279.846 58.2971 269.395 86.6228C264.354 100.269 259.472 113.962 254.749 127.704C249.635 140.752 245.344 154.107 241.903 167.689C239.84 177.765 240.72 187.612 247.563 195.72C254.156 203.53 262.816 201.953 271.68 199.247C291.113 192.917 308.628 181.804 322.602 166.936C327.638 161.516 318.767 153.48 313.821 158.802ZM478.06 158.298C462.992 170.343 431.106 185.775 423.232 187.736C423.412 186.375 423.445 184.998 423.33 183.63C422.861 180.242 421.532 177.03 419.469 174.296C417.406 171.563 414.678 169.399 411.541 168.009C408.613 166.898 405.454 166.526 402.347 166.928C399.239 167.33 396.28 168.493 393.734 170.313C391.637 171.562 389.578 172.895 387.541 174.272C389.163 169.682 389.915 164.832 389.759 159.969C389.556 157.513 388.753 155.144 387.42 153.068C386.088 150.992 384.266 149.272 382.113 148.058C379.961 146.844 377.543 146.172 375.071 146.101C372.598 146.031 370.146 146.564 367.927 147.653C352.565 154.634 338.087 163.404 324.797 173.779C326.011 171.041 327.318 168.344 328.715 165.694C331.874 159.721 317.573 147.427 313.704 154.741C306.699 168.021 302.157 182.451 300.298 197.338C299.644 202.341 310.031 212.703 314.769 207.957C324.562 198.093 335.222 189.123 346.621 181.153C352.745 176.89 359.09 172.953 365.63 169.356C367.519 168.314 369.851 166.804 372.31 165.348C371.649 167.444 370.999 169.409 370.633 171.013L366.235 190.39C364.863 196.412 374.366 206.929 380.483 202.585L396.704 191.064C399.39 189.155 401.993 187.01 404.816 185.301C405.441 184.964 406.089 184.67 406.754 184.42C406.728 184.582 406.701 184.755 406.671 184.91C405.851 187.91 405.746 191.061 406.365 194.109C407.427 197.598 409.603 200.646 412.563 202.791C415.523 204.936 419.104 206.06 422.763 205.992C429.832 205.038 436.581 202.461 442.479 198.464C458.039 189.184 472.836 178.69 486.731 167.079C492.221 162.687 483.969 153.57 478.06 158.298ZM587.728 157.289C576.793 167.173 546.01 190.104 528.566 192.182C528.331 192.208 528.108 192.257 527.885 192.287C528.607 187.826 529.681 183.428 531.097 179.135C532.802 174.874 534.037 170.44 534.781 165.912C535.151 165.083 535.219 164.151 534.974 163.278C534.522 161.409 533.693 159.652 532.537 158.113C531.382 156.574 529.924 155.286 528.252 154.327C527.362 153.576 526.323 153.021 525.204 152.697C524.084 152.373 522.908 152.287 521.753 152.445C520.087 152.874 518.466 153.382 516.883 153.95C514.93 151.372 512.478 149.21 509.671 147.592C506.865 145.975 503.761 144.934 500.544 144.533C497.326 144.132 494.061 144.378 490.941 145.257C487.82 146.135 484.909 147.628 482.379 149.648C467.896 160.394 458.465 178.255 454.604 195.483C453.353 201.065 461.465 210.84 467.605 208.435C485.243 201.535 498.104 186.513 513.614 176.271C511.809 181.181 511.583 186.529 512.968 191.572C514.2 195.726 516.585 199.449 519.848 202.313C523.11 205.176 527.119 207.063 531.411 207.757C540.003 208.758 548.531 204.155 555.641 199.928C570.825 190.351 585.015 179.296 598.005 166.925C603.344 162.099 593.263 152.275 587.728 157.281V157.289ZM482.828 176.655L483.149 176.2C486.2 172.049 489.711 168.255 493.615 164.889C496.032 162.566 498.952 160.829 502.151 159.811L505.502 159.246L505.744 159.31C497.691 164.527 490.032 170.325 482.828 176.655ZM734.091 83.1787C706.921 68.928 672.764 68.6344 641.947 69.0259C646.426 59.5202 650.95 50.0359 655.519 40.5735C658.478 34.4268 644.063 22.2351 640.508 29.6201C634.183 42.7604 627.831 56.0136 621.699 69.3985C587.732 70.3966 553.904 74.1466 520.548 80.6116C513.346 81.9968 524.583 96.9062 531.543 95.5662C558.935 90.2874 586.66 86.8918 614.52 85.4032C591.064 138.875 572.452 194.534 573.407 253.569C573.513 260.179 589.012 270.549 588.865 261.372C587.856 199.179 609.238 140.686 634.734 84.6429L635.607 84.6166C652.232 84.3205 668.842 84.7056 685.437 85.7721C702.288 86.8637 719.227 88.4935 734.393 96.4507C737.616 98.1408 741.572 97.8773 741.977 93.7143C742.388 89.4647 737.416 84.9101 734.102 83.1749L734.091 83.1787ZM705.175 158.008C687.983 171.25 645.937 191.832 628.666 194.086C629.264 191.866 630.022 189.691 630.933 187.578L631.017 187.548C641.487 182.557 680.207 167.644 663.745 150.514C652.297 138.597 636.986 149.159 628.357 158.599C618.816 169.029 605.188 189.581 615.714 203.579C622.515 212.613 632.369 211.95 641.963 208.551C668.068 199.299 692.189 182.132 715.18 167.181C720.814 163.53 711.281 153.325 705.186 158.008H705.175Z" fill="url(#paint0_linear_37_3408)"/>
<defs>
<linearGradient id="paint0_linear_37_3408" x1="9.20791" y1="149.556" x2="333.145" y2="544.375" gradientUnits="userSpaceOnUse">
<stop stop-color="#5532E0"/>
<stop offset="0.0853545" stop-color="#5532E0"/>
<stop offset="0.554105" stop-color="#5532E0"/>
<stop offset="0.908271" stop-color="#5532E0"/>
<stop offset="0.9998" stop-color="#5532E0" stop-opacity="0"/>
<stop offset="0.9999" stop-color="#FD3737" stop-opacity="0.65"/>
</linearGradient>
</defs>
</svg>
